<svg xmlns="http://www.w3.org/2000/svg" viewBox="780 430 510 830" preserveAspectRatio="xMidYMid meet" color="#FF8A00">
<path fill="currentColor" d="M 1032.68 441.448 C 1036.58 441.249 1041.8 441.636 1045.73 441.918 C 1085.27 444.698 1122.38 462.025 1149.89 490.555 C 1158.48 499.304 1167.81 511.298 1176.03 520.832 C 1204.34 522.23 1240.65 525.882 1264.14 542.976 C 1270.41 547.539 1277.78 554.118 1279.03 562.101 C 1276.23 569.677 1266.37 568.861 1259.02 571.68 C 1220.23 586.55 1179.76 598.898 1174.75 646.244 C 1170.09 690.339 1199.59 715.662 1218.01 752.114 C 1232.26 780.323 1243.45 811.114 1245.83 842.773 C 1254.22 966.459 1146.97 1102.55 1072.23 1191.26 C 1058.13 1208.74 1039.5 1229.38 1024.25 1245.72 C 951.649 1161.71 878.674 1081.63 832.38 978.536 C 816.414 942.982 803.65 906.499 802.239 867.074 C 800.762 825.805 813.858 780.673 835.14 745.457 C 844.307 729.329 856.452 713.568 861.064 695.3 C 869.202 663.065 862.856 627.784 864.984 594.884 C 867.299 557.233 882.591 521.549 908.258 493.905 C 941.269 458.482 985.251 443.123 1032.68 441.448 z M 885.713 696.003 C 881.112 709.374 876.954 717.191 870.035 729.592 L 983.359 983.289 C 995.175 1009.68 1014.94 1049.94 1024.36 1075.78 C 1035.84 1046.19 1050.26 1018.64 1062.79 989.72 C 1100.54 902.614 1142.25 815.483 1179.14 728.108 C 1150.06 681.236 1139.68 654.685 1166.74 603.44 C 1134.09 582.696 1140.35 584.551 1124.08 550.283 C 1110.9 522.532 1074.89 504.392 1043.67 509.353 C 973.506 517.88 949.273 594.878 976.657 652.228 C 987.857 675.683 1035.29 740.138 1026.89 762.875 C 1016.96 767.831 976.478 744.164 965.82 738.666 C 938.999 724.833 912.598 709.802 885.713 696.003 z M 1179.36 587.474 C 1189.86 579.957 1195.85 575.604 1207.44 569.855 C 1219.32 565.166 1235.26 560.44 1245.73 555.889 C 1223.56 545.895 1198.21 542.336 1174.05 540.703 C 1168.59 548.903 1157.38 563.193 1153.25 570.284 C 1162.38 577.401 1169 582.12 1179.36 587.474 z"/>
<path fill="currentColor" d="M 950.369 760.612 C 963.188 761.527 994.771 780.616 1007.81 787.899 C 1021.46 780.158 1026.75 781.116 1040.49 787.561 C 1050.42 782.102 1083.53 763.99 1092.46 761.915 C 1111.9 757.395 1107.13 834.823 1099.34 845.659 C 1094.17 847.967 1091.78 847.934 1086.54 845.684 C 1071.59 839.265 1056.14 830.736 1042.27 822.356 C 1028.81 829.519 1020.11 830.713 1006.98 821.881 C 995.905 828.432 959.641 851.703 951.193 846.658 C 936.269 837.745 943.705 773.931 950.369 760.612 z"/>
<path fill="currentColor" d="M 1071.86 551.714 C 1077.78 550.451 1083.95 551.872 1088.72 555.596 C 1093.49 559.32 1096.36 564.964 1096.56 571.009 C 1096.9 580.9 1090.11 589.612 1080.43 591.693 C 1069.39 594.068 1058.51 587.036 1056.14 575.991 C 1053.78 564.946 1060.82 554.074 1071.86 551.714 z"/>
<path fill="currentColor" d="M 1022.47 939.013 C 1029.92 938.079 1036.75 943.283 1037.82 950.716 C 1038.89 958.149 1033.82 965.074 1026.41 966.287 C 1021.49 967.092 1016.52 965.178 1013.41 961.281 C 1010.3 957.384 1009.54 952.112 1011.42 947.494 C 1013.29 942.876 1017.52 939.633 1022.47 939.013 z"/>
<path fill="currentColor" d="M 1023.1 874.059 C 1028.54 875.603 1033.58 877.608 1036.19 883.03 C 1037.81 886.372 1037.88 890.258 1036.37 893.651 C 1033.85 899.347 1029.81 901.252 1024.43 903.503 C 1007.18 897.665 1005.67 880.115 1023.1 874.059 z"/>
</svg>
